<svg xmlns="http://www.w3.org/2000/svg" width="160" height="160" viewBox="0 0 160 160" version="1.1">
	<path d="M 0 80 L 0 160 10 160 L 20 160 20 110 L 20 60 30 60 L 40 60 40 80 L 40 100 50 100 L 60 100 60 80 L 60 60 50 60 L 40 60 40 50 L 40 40 80 40 L 120 40 120 50 L 120 60 110 60 L 100 60 100 80 L 100 100 110 100 L 120 100 120 80 L 120 60 130 60 L 140 60 140 110.035 L 140 160.070 150.250 159.785 L 160.500 159.500 160.756 79.750 L 161.012 0 80.506 0 L 0 0 0 80 M 0.477 80.500 C 0.477 124.500, 0.600 142.354, 0.750 120.176 C 0.900 97.997, 0.900 61.997, 0.750 40.176 C 0.599 18.354, 0.476 36.500, 0.477 80.500" stroke="none" fill="black" fill-rule="evenodd"/>
</svg>